<?xml version="1.0" encoding="UTF-8" standalone="no"?>
<!-- Generator: Adobe Illustrator 17.0.0, SVG Export Plug-In . SVG Version: 6.00 Build 0)  -->

<svg
   xmlns:dc="http://purl.org/dc/elements/1.1/"
   xmlns:cc="http://creativecommons.org/ns#"
   xmlns:rdf="http://www.w3.org/1999/02/22-rdf-syntax-ns#"
   xmlns:svg="http://www.w3.org/2000/svg"
   xmlns="http://www.w3.org/2000/svg"
   xmlns:sodipodi="http://sodipodi.sourceforge.net/DTD/sodipodi-0.dtd"
   xmlns:inkscape="http://www.inkscape.org/namespaces/inkscape"
   version="1.1"
   id="Capa_1"
   x="0px"
   y="0px"
   width="50"
   height="50"
   viewBox="0 0 50 50"
   xml:space="preserve"
   inkscape:version="0.48.4 r9939"
   sodipodi:docname="football84_selected.svg"><metadata
     id="metadata85"><rdf:RDF><cc:Work
         rdf:about=""><dc:format>image/svg+xml</dc:format><dc:type
           rdf:resource="http://purl.org/dc/dcmitype/StillImage" /></cc:Work></rdf:RDF></metadata><defs
     id="defs83" /><sodipodi:namedview
     pagecolor="#ffffff"
     bordercolor="#666666"
     borderopacity="1"
     objecttolerance="10"
     gridtolerance="10"
     guidetolerance="10"
     inkscape:pageopacity="0"
     inkscape:pageshadow="2"
     inkscape:window-width="1366"
     inkscape:window-height="715"
     id="namedview81"
     showgrid="false"
     inkscape:zoom="10.7"
     inkscape:cx="25"
     inkscape:cy="25"
     inkscape:window-x="0"
     inkscape:window-y="31"
     inkscape:window-maximized="1"
     inkscape:current-layer="Capa_1"
     fit-margin-top="0"
     fit-margin-left="0"
     fit-margin-right="0"
     fit-margin-bottom="0" /><g
     id="g3"
     style="fill:#ffffff;fill-opacity:1"
     transform="matrix(1.0638298,0,0,0.9677357,-8.1563828,-7.0964058)"><rect
       x="13.597"
       y="44.167"
       width="22.653"
       height="4.8330002"
       id="rect5"
       style="fill:#ffffff;fill-opacity:1" /><rect
       x="42.5"
       y="44.167"
       width="5.25"
       height="4.8330002"
       id="rect7"
       style="fill:#ffffff;fill-opacity:1" /><rect
       x="13.597"
       y="38.333"
       width="22.653"
       height="4.8330002"
       id="rect9"
       style="fill:#ffffff;fill-opacity:1" /><rect
       x="13.597"
       y="32.5"
       width="22.653"
       height="4.8330002"
       id="rect11"
       style="fill:#ffffff;fill-opacity:1" /><rect
       x="42.5"
       y="38.333"
       width="5.25"
       height="4.8330002"
       id="rect13"
       style="fill:#ffffff;fill-opacity:1" /><rect
       x="37.25"
       y="21.5"
       width="4.25"
       height="4.1669998"
       id="rect15"
       style="fill:#ffffff;fill-opacity:1" /><rect
       x="42.5"
       y="21.5"
       width="5.25"
       height="4.1669998"
       id="rect17"
       style="fill:#ffffff;fill-opacity:1" /><rect
       x="42.5"
       y="32.5"
       width="5.25"
       height="4.8330002"
       id="rect19"
       style="fill:#ffffff;fill-opacity:1" /><rect
       x="42.5"
       y="26.667"
       width="5.25"
       height="4.8330002"
       id="rect21"
       style="fill:#ffffff;fill-opacity:1" /><rect
       x="37.25"
       y="32.5"
       width="4.25"
       height="4.8330002"
       id="rect23"
       style="fill:#ffffff;fill-opacity:1" /><path
       d="m 23.771,12.181 c -0.912,0 -1.438,0.86 -1.438,2.009 0,1.167 0.544,1.983 1.438,1.983 0.904,0 1.422,-0.859 1.422,-2.009 0,-1.071 -0.5,-1.983 -1.422,-1.983 z"
       id="path25"
       style="fill:#ffffff;fill-opacity:1"
       inkscape:connector-curvature="0" /><path
       d="m 54.667,7.333 h -47 V 20.5 h 47 V 7.333 z m -36.769,9.893 c -0.675,0 -1.342,-0.185 -1.676,-0.369 l 0.272,-1.097 c 0.351,0.184 0.912,0.369 1.482,0.369 0.614,0 0.94,-0.254 0.94,-0.641 0,-0.369 -0.281,-0.579 -0.992,-0.825 -0.982,-0.351 -1.632,-0.895 -1.632,-1.755 0,-1.009 0.851,-1.773 2.237,-1.773 0.676,0 1.158,0.132 1.51,0.298 l -0.299,1.071 c -0.227,-0.114 -0.658,-0.281 -1.228,-0.281 -0.579,0 -0.859,0.272 -0.859,0.57 0,0.378 0.324,0.544 1.097,0.834 1.044,0.386 1.526,0.93 1.526,1.763 0,0.994 -0.755,1.836 -2.378,1.836 z m 5.803,0.009 c -1.745,0 -2.781,-1.325 -2.781,-3.019 0,-1.772 1.141,-3.097 2.878,-3.097 1.816,0 2.808,1.36 2.808,3.001 -0.001,1.948 -1.168,3.115 -2.905,3.115 z m 6.805,-1.114 c 0.412,0 0.851,-0.079 1.123,-0.193 l 0.192,1.053 c -0.236,0.114 -0.798,0.254 -1.509,0.254 -2.044,0 -3.098,-1.281 -3.098,-2.966 0,-2.018 1.44,-3.132 3.229,-3.132 0.692,0 1.22,0.132 1.456,0.263 l -0.28,1.053 c -0.264,-0.114 -0.641,-0.22 -1.123,-0.22 -1.054,0 -1.878,0.641 -1.878,1.957 0.001,1.185 0.703,1.931 1.888,1.931 z m 4.961,0 c 0.412,0 0.851,-0.079 1.123,-0.193 l 0.192,1.053 c -0.236,0.114 -0.798,0.254 -1.509,0.254 -2.044,0 -3.098,-1.281 -3.098,-2.966 0,-2.018 1.439,-3.132 3.229,-3.132 0.692,0 1.22,0.132 1.456,0.263 l -0.28,1.053 c -0.264,-0.114 -0.641,-0.22 -1.123,-0.22 -1.054,0 -1.878,0.641 -1.878,1.957 10e-4,1.185 0.703,1.931 1.888,1.931 z m 5.978,1.017 h -3.764 v -5.914 h 3.641 v 1.097 h -2.307 v 1.229 h 2.176 v 1.088 h -2.176 v 1.404 h 2.43 v 1.096 z m 4.013,0 C 45.371,16.963 45.222,16.489 45.055,15.76 44.888,15.014 44.634,14.821 44.081,14.812 h -0.395 v 2.325 h -1.325 v -5.834 c 0.43,-0.07 1.062,-0.123 1.781,-0.123 0.877,0 1.491,0.132 1.912,0.465 0.36,0.281 0.553,0.702 0.553,1.246 0,0.746 -0.535,1.264 -1.044,1.448 v 0.026 c 0.413,0.167 0.641,0.553 0.79,1.097 0.185,0.676 0.359,1.448 0.474,1.676 h -1.369 z"
       id="path27"
       style="fill:#ffffff;fill-opacity:1"
       inkscape:connector-curvature="0" /><rect
       x="37.25"
       y="44.167"
       width="4.25"
       height="4.8330002"
       id="rect29"
       style="fill:#ffffff;fill-opacity:1" /><path
       d="m 44.292,12.181 c -0.325,0 -0.51,0.017 -0.606,0.043 v 1.623 h 0.526 c 0.666,0 1.061,-0.333 1.061,-0.851 10e-4,-0.534 -0.368,-0.815 -0.981,-0.815 z"
       id="path31"
       style="fill:#ffffff;fill-opacity:1"
       inkscape:connector-curvature="0" /><rect
       x="37.25"
       y="38.333"
       width="4.25"
       height="4.8330002"
       id="rect33"
       style="fill:#ffffff;fill-opacity:1" /><rect
       x="13.597"
       y="26.667"
       width="22.653"
       height="4.8330002"
       id="rect35"
       style="fill:#ffffff;fill-opacity:1" /><rect
       x="37.25"
       y="26.667"
       width="4.25"
       height="4.8330002"
       id="rect37"
       style="fill:#ffffff;fill-opacity:1" /><path
       d="M 13.597,25.667 H 36.25 V 21.5 H 13.597 v 4.167 z m 20.038,-3.741 c 0.903,0 1.635,0.732 1.635,1.635 0,0.903 -0.731,1.635 -1.635,1.635 -0.903,0 -1.635,-0.732 -1.635,-1.635 0,-0.903 0.731,-1.635 1.635,-1.635 z"
       id="path39"
       style="fill:#ffffff;fill-opacity:1"
       inkscape:connector-curvature="0" /><rect
       x="37.25"
       y="50"
       width="4.25"
       height="4.8330002"
       id="rect41"
       style="fill:#ffffff;fill-opacity:1" /><rect
       x="42.5"
       y="55.834"
       width="5.25"
       height="3.1659999"
       id="rect43"
       style="fill:#ffffff;fill-opacity:1" /><rect
       x="48.75"
       y="38.333"
       width="5.9169998"
       height="4.8330002"
       id="rect45"
       style="fill:#ffffff;fill-opacity:1" /><rect
       x="48.75"
       y="44.167"
       width="5.9169998"
       height="4.8330002"
       id="rect47"
       style="fill:#ffffff;fill-opacity:1" /><rect
       x="48.75"
       y="32.5"
       width="5.9169998"
       height="4.8330002"
       id="rect49"
       style="fill:#ffffff;fill-opacity:1" /><rect
       x="48.75"
       y="50"
       width="5.9169998"
       height="4.8330002"
       id="rect51"
       style="fill:#ffffff;fill-opacity:1" /><rect
       x="42.5"
       y="50"
       width="5.25"
       height="4.8330002"
       id="rect53"
       style="fill:#ffffff;fill-opacity:1" /><rect
       x="48.75"
       y="21.5"
       width="5.9169998"
       height="4.1669998"
       id="rect55"
       style="fill:#ffffff;fill-opacity:1" /><rect
       x="48.75"
       y="26.667"
       width="5.9169998"
       height="4.8330002"
       id="rect57"
       style="fill:#ffffff;fill-opacity:1" /><rect
       x="48.75"
       y="55.834"
       width="5.9169998"
       height="3.1659999"
       id="rect59"
       style="fill:#ffffff;fill-opacity:1" /><rect
       x="7.6669998"
       y="55.834"
       width="4.9299998"
       height="3.1659999"
       id="rect61"
       style="fill:#ffffff;fill-opacity:1" /><rect
       x="37.25"
       y="55.834"
       width="4.25"
       height="3.1659999"
       id="rect63"
       style="fill:#ffffff;fill-opacity:1" /><rect
       x="7.6669998"
       y="26.667"
       width="4.9299998"
       height="4.8330002"
       id="rect65"
       style="fill:#ffffff;fill-opacity:1" /><rect
       x="7.6669998"
       y="32.5"
       width="4.9299998"
       height="4.8330002"
       id="rect67"
       style="fill:#ffffff;fill-opacity:1" /><path
       d="m 12.597,21.5 h -4.93 v 4.167 h 4.93 V 21.5 z m -2.07,3.538 H 9.859 v -2.34 H 9.851 L 9.288,22.966 9.175,22.448 9.961,22.084 h 0.567 v 2.954 z"
       id="path69"
       style="fill:#ffffff;fill-opacity:1"
       inkscape:connector-curvature="0" /><rect
       x="13.597"
       y="55.834"
       width="22.653"
       height="3.1659999"
       id="rect71"
       style="fill:#ffffff;fill-opacity:1" /><rect
       x="7.6669998"
       y="38.333"
       width="4.9299998"
       height="4.8330002"
       id="rect73"
       style="fill:#ffffff;fill-opacity:1" /><rect
       x="13.597"
       y="50"
       width="22.653"
       height="4.8330002"
       id="rect75"
       style="fill:#ffffff;fill-opacity:1" /><rect
       x="7.6669998"
       y="50"
       width="4.9299998"
       height="4.8330002"
       id="rect77"
       style="fill:#ffffff;fill-opacity:1" /><rect
       x="7.6669998"
       y="44.167"
       width="4.9299998"
       height="4.8330002"
       id="rect79"
       style="fill:#ffffff;fill-opacity:1" /></g></svg>