<?xml version="1.0" encoding="UTF-8" standalone="no"?>
<!-- Generator: Adobe Illustrator 16.0.0, SVG Export Plug-In . SVG Version: 6.00 Build 0)  -->

<svg
   xmlns:dc="http://purl.org/dc/elements/1.1/"
   xmlns:cc="http://creativecommons.org/ns#"
   xmlns:rdf="http://www.w3.org/1999/02/22-rdf-syntax-ns#"
   xmlns:svg="http://www.w3.org/2000/svg"
   xmlns="http://www.w3.org/2000/svg"
   xmlns:sodipodi="http://sodipodi.sourceforge.net/DTD/sodipodi-0.dtd"
   xmlns:inkscape="http://www.inkscape.org/namespaces/inkscape"
   version="1.1"
   id="Capa_1"
   x="0px"
   y="0px"
   width="64"
   height="64"
   viewBox="0 0 64.000001 63.999999"
   xml:space="preserve"
   inkscape:version="0.48.4 r9939"
   sodipodi:docname="dwelling1_selected.svg"><metadata
     id="metadata43"><rdf:RDF><cc:Work
         rdf:about=""><dc:format>image/svg+xml</dc:format><dc:type
           rdf:resource="http://purl.org/dc/dcmitype/StillImage" /></cc:Work></rdf:RDF></metadata><defs
     id="defs41" /><sodipodi:namedview
     pagecolor="#ffffff"
     bordercolor="#666666"
     borderopacity="1"
     objecttolerance="10"
     gridtolerance="10"
     guidetolerance="10"
     inkscape:pageopacity="0"
     inkscape:pageshadow="2"
     inkscape:window-width="1366"
     inkscape:window-height="715"
     id="namedview39"
     showgrid="false"
     inkscape:zoom="9.8579781"
     inkscape:cx="28.168774"
     inkscape:cy="22.158195"
     inkscape:window-x="0"
     inkscape:window-y="31"
     inkscape:window-maximized="1"
     inkscape:current-layer="Capa_1" /><path
     style="fill:#ffffff;fill-opacity:1"
     d="m 8.7022948,61.178002 c 0,0 -0.056847,1.430644 1.3406362,1.430644 1.738564,0 16.132643,-0.01895 16.132643,-0.01895 l 0.02368,-13.219245 c 0,0 -0.227388,-2.179126 1.887787,-2.179126 h 6.693708 c 2.501259,0 2.347298,2.179126 2.347298,2.179126 l -0.02842,13.17661 c 0,0 13.647965,0 15.791562,0 1.774093,0 1.693561,-1.781199 1.693561,-1.781199 V 36.395174 L 32.329238,16.598278 8.7022948,36.395174 v 24.782828 z"
     id="path3"
     inkscape:connector-curvature="0" /><path
     style="fill:#ffffff;fill-opacity:1"
     d="m 0,34.552391 c 0,0 2.0062176,3.697409 6.3810512,0 l 26.1447818,-22.11814 24.512806,21.98076 c 5.064101,3.652406 6.961362,0 6.961362,0 L 32.525833,5.903977 0,34.552391 z"
     id="path5"
     inkscape:connector-curvature="0" /><polygon
     style="fill:#ffffff;fill-opacity:1"
     points="23.83,8.212 23.83,2.735 21.168,2.735 21.179,5.963 "
     id="polygon7"
     transform="matrix(2.3686159,0,0,2.3686159,0,5.903977)" /><g
     id="g9"
     transform="matrix(0.88601044,0,0,0.88601044,0,41.397554)"
     style="fill:#ffffff" /><g
     id="g11"
     transform="matrix(0.88601044,0,0,0.88601044,0,41.397554)"
     style="fill:#ffffff" /><g
     id="g13"
     transform="matrix(0.88601044,0,0,0.88601044,0,41.397554)"
     style="fill:#ffffff" /><g
     id="g15"
     transform="matrix(0.88601044,0,0,0.88601044,0,41.397554)"
     style="fill:#ffffff" /><g
     id="g17"
     transform="matrix(0.88601044,0,0,0.88601044,0,41.397554)"
     style="fill:#ffffff" /><g
     id="g19"
     transform="matrix(0.88601044,0,0,0.88601044,0,41.397554)"
     style="fill:#ffffff" /><g
     id="g21"
     transform="matrix(0.88601044,0,0,0.88601044,0,41.397554)"
     style="fill:#ffffff" /><g
     id="g23"
     transform="matrix(0.88601044,0,0,0.88601044,0,41.397554)"
     style="fill:#ffffff" /><g
     id="g25"
     transform="matrix(0.88601044,0,0,0.88601044,0,41.397554)"
     style="fill:#ffffff" /><g
     id="g27"
     transform="matrix(0.88601044,0,0,0.88601044,0,41.397554)"
     style="fill:#ffffff" /><g
     id="g29"
     transform="matrix(0.88601044,0,0,0.88601044,0,41.397554)"
     style="fill:#ffffff" /><g
     id="g31"
     transform="matrix(0.88601044,0,0,0.88601044,0,41.397554)"
     style="fill:#ffffff" /><g
     id="g33"
     transform="matrix(0.88601044,0,0,0.88601044,0,41.397554)"
     style="fill:#ffffff" /><g
     id="g35"
     transform="matrix(0.88601044,0,0,0.88601044,0,41.397554)"
     style="fill:#ffffff" /><g
     id="g37"
     transform="matrix(0.88601044,0,0,0.88601044,0,41.397554)"
     style="fill:#ffffff" /></svg>