<?xml version="1.0" encoding="UTF-8" standalone="no"?>
<!-- Generator: Adobe Illustrator 17.0.0, SVG Export Plug-In . SVG Version: 6.00 Build 0)  -->

<svg
   xmlns:dc="http://purl.org/dc/elements/1.1/"
   xmlns:cc="http://creativecommons.org/ns#"
   xmlns:rdf="http://www.w3.org/1999/02/22-rdf-syntax-ns#"
   xmlns:svg="http://www.w3.org/2000/svg"
   xmlns="http://www.w3.org/2000/svg"
   xmlns:sodipodi="http://sodipodi.sourceforge.net/DTD/sodipodi-0.dtd"
   xmlns:inkscape="http://www.inkscape.org/namespaces/inkscape"
   version="1.1"
   id="Capa_1"
   x="0px"
   y="0px"
   width="50"
   height="50"
   viewBox="0 0 50 50"
   xml:space="preserve"
   inkscape:version="0.48.4 r9939"
   sodipodi:docname="football65.svg"><metadata
     id="metadata19"><rdf:RDF><cc:Work
         rdf:about=""><dc:format>image/svg+xml</dc:format><dc:type
           rdf:resource="http://purl.org/dc/dcmitype/StillImage" /></cc:Work></rdf:RDF></metadata><defs
     id="defs17" /><sodipodi:namedview
     pagecolor="#ffffff"
     bordercolor="#666666"
     borderopacity="1"
     objecttolerance="10"
     gridtolerance="10"
     guidetolerance="10"
     inkscape:pageopacity="0"
     inkscape:pageshadow="2"
     inkscape:window-width="1366"
     inkscape:window-height="715"
     id="namedview15"
     showgrid="false"
     inkscape:zoom="3.44"
     inkscape:cx="32"
     inkscape:cy="32"
     inkscape:window-x="0"
     inkscape:window-y="31"
     inkscape:window-maximized="1"
     inkscape:current-layer="Capa_1" /><g
     id="g3"
     transform="matrix(0.85892943,0,0,0.85892943,-1.6268123,-2.4882933)"
     style="fill:#246e1f;fill-opacity:1"><path
       d="M 59.106,12.313 H 2.894 c -0.553,0 -1,0.448 -1,1 v 38.226 c 0,0.552 0.447,1 1,1 h 56.212 c 0.552,0 1,-0.448 1,-1 V 13.313 c 0,-0.552 -0.448,-1 -1,-1 z m -1,37.226 c 0,0.552 -0.447,1 -1,1 H 4.894 c -0.553,0 -1,-0.448 -1,-1 V 15.313 c 0,-0.552 0.447,-1 1,-1 h 52.212 c 0.553,0 1,0.448 1,1 v 34.226 z"
       id="path5"
       inkscape:connector-curvature="0"
       style="fill:#246e1f;fill-opacity:1" /><path
       d="m 6.232,36.744 h 2.512 c 0.553,0 1,-0.448 1,-1 v -6.635 c 0,-0.552 -0.447,-1 -1,-1 H 6.232 c -0.553,0 -1,0.448 -1,1 v 6.635 c 0,0.552 0.448,1 1,1 z"
       id="path7"
       inkscape:connector-curvature="0"
       style="fill:#246e1f;fill-opacity:1" /><path
       d="m 56.119,28.109 h -2.512 c -0.553,0 -1,0.448 -1,1 v 6.635 c 0,0.552 0.447,1 1,1 h 2.512 c 0.553,0 1,-0.448 1,-1 v -6.635 c 0,-0.552 -0.447,-1 -1,-1 z"
       id="path9"
       inkscape:connector-curvature="0"
       style="fill:#246e1f;fill-opacity:1" /><path
       d="M 29.408,15.733 H 10.519 c -0.553,0 -0.988,0.454 -1.115,0.991 -0.372,1.573 -1.609,2.81 -3.181,3.183 -0.537,0.128 -0.991,0.563 -0.991,1.115 v 3.408 c 0,0.552 0.447,1 1,1 h 5.219 c 0.553,0 1,0.448 1,1 v 0.948 c 0,0.552 0.067,1 0.151,1 h 0.151 c 2.092,0.188 3.745,1.916 3.745,4.048 0,1.786 -1.161,3.289 -2.768,3.821 -0.524,0.174 -1.01,0.207 -1.054,0.209 -0.04,0.002 -0.08,0.002 -0.08,0.002 -0.025,0.001 -0.049,0.005 -0.072,0.008 -0.04,0.006 -0.074,0.455 -0.074,1.007 0,0.306 0,0.642 0,0.947 0,0.552 -0.447,1.001 -1,1.001 H 6.232 c -0.553,0 -1,0.448 -1,1 v 3.409 c 0,0.552 0.453,0.988 0.99,1.115 1.572,0.372 2.809,1.609 3.182,3.181 0.127,0.538 0.562,0.992 1.115,0.992 h 18.889 c 0.553,0 1,-0.448 1,-1 V 37.334 c 0,-0.552 -0.442,-1.101 -0.929,-1.364 -1.261,-0.683 -2.119,-2.008 -2.119,-3.543 0,-1.535 0.858,-2.862 2.119,-3.544 0.486,-0.263 0.929,-0.811 0.929,-1.364 V 16.733 c 0,-0.552 -0.447,-1 -1,-1 z"
       id="path11"
       inkscape:connector-curvature="0"
       style="fill:#246e1f;fill-opacity:1" /><path
       d="m 55.984,39.422 h -5.086 c -0.553,0 -1,-0.448 -1,-1 v -0.955 c 0,-0.552 -0.016,-0.996 -0.034,-0.997 -0.011,-10e-4 -0.022,-0.003 -0.034,-0.003 h -0.051 c -2.179,-0.07 -3.928,-1.846 -3.928,-4.04 0,-2.194 1.749,-3.971 3.928,-4.036 0.024,-0.002 0.043,-0.004 0.059,-0.006 0.033,-0.004 0.06,-0.455 0.06,-1.007 0,-0.306 0,-0.642 0,-0.947 0,-0.552 0.447,-1.001 1,-1.001 h 5.086 c 0.553,0 1,-0.448 1,-1 v -3.408 c 0,-0.552 -0.454,-0.988 -0.991,-1.115 -1.573,-0.372 -2.811,-1.61 -3.183,-3.183 -0.127,-0.538 -0.562,-0.991 -1.115,-0.991 H 33.408 c -0.553,0 -1,0.448 -1,1 v 10.785 c 0,0.552 0.442,1.101 0.928,1.364 1.261,0.683 2.119,2.009 2.119,3.544 0,1.535 -0.858,2.861 -2.119,3.544 -0.485,0.263 -0.928,0.811 -0.928,1.364 v 10.785 c 0,0.552 0.447,1 1,1 h 18.287 c 0.553,0 0.988,-0.454 1.115,-0.991 0.372,-1.572 1.609,-2.81 3.183,-3.182 0.538,-0.128 0.991,-0.563 0.991,-1.115 v -3.409 c 0,-0.552 -0.447,-1 -1,-1 z"
       id="path13"
       inkscape:connector-curvature="0"
       style="fill:#246e1f;fill-opacity:1" /></g></svg>