<?xml version="1.0" encoding="UTF-8" standalone="no"?>
<!-- Generator: Adobe Illustrator 16.0.0, SVG Export Plug-In . SVG Version: 6.00 Build 0)  -->

<svg
   xmlns:dc="http://purl.org/dc/elements/1.1/"
   xmlns:cc="http://creativecommons.org/ns#"
   xmlns:rdf="http://www.w3.org/1999/02/22-rdf-syntax-ns#"
   xmlns:svg="http://www.w3.org/2000/svg"
   xmlns="http://www.w3.org/2000/svg"
   xmlns:sodipodi="http://sodipodi.sourceforge.net/DTD/sodipodi-0.dtd"
   xmlns:inkscape="http://www.inkscape.org/namespaces/inkscape"
   version="1.1"
   id="Capa_1"
   x="0px"
   y="0px"
   width="50"
   height="50"
   viewBox="0 0 50.000001 49.999999"
   xml:space="preserve"
   inkscape:version="0.48.4 r9939"
   sodipodi:docname="dwelling1_selected.svg"><metadata
     id="metadata43"><rdf:RDF><cc:Work
         rdf:about=""><dc:format>image/svg+xml</dc:format><dc:type
           rdf:resource="http://purl.org/dc/dcmitype/StillImage" /></cc:Work></rdf:RDF></metadata><defs
     id="defs41" /><sodipodi:namedview
     pagecolor="#ffffff"
     bordercolor="#666666"
     borderopacity="1"
     objecttolerance="10"
     gridtolerance="10"
     guidetolerance="10"
     inkscape:pageopacity="0"
     inkscape:pageshadow="2"
     inkscape:window-width="1366"
     inkscape:window-height="715"
     id="namedview39"
     showgrid="false"
     inkscape:zoom="9.8579781"
     inkscape:cx="28.168774"
     inkscape:cy="38.388704"
     inkscape:window-x="0"
     inkscape:window-y="31"
     inkscape:window-maximized="1"
     inkscape:current-layer="Capa_1"
     units="px" /><path
     style="fill:#ffffff;fill-opacity:1"
     d="m 6.7986678,47.490921 c 0,0 -0.044412,1.117734 1.0473721,1.117734 1.3582531,0 12.6036271,-0.01484 12.6036271,-0.01484 l 0.0185,-10.327578 c 0,0 -0.177647,-1.702422 1.474834,-1.702422 h 5.229459 c 1.954109,0 1.833827,1.702422 1.833827,1.702422 l -0.0222,10.294219 c 0,0 10.662472,0 12.337158,0 1.38601,0 1.323094,-1.391563 1.323094,-1.391563 V 28.12928 L 25.257217,12.662951 6.7986678,28.12928 v 19.361641 z"
     id="path3"
     inkscape:connector-curvature="0" /><path
     style="fill:#ffffff;fill-opacity:1"
     d="m 0,26.689671 c 0,0 1.5673575,2.888593 4.9851963,0 L 25.410807,9.4099046 44.561437,26.582327 c 3.956329,2.853437 5.438564,0 5.438564,0 L 25.410807,4.3081075 0,26.689671 z"
     id="path5"
     inkscape:connector-curvature="0" /><polygon
     style="fill:#ffffff;fill-opacity:1"
     points="21.179,5.963 23.83,8.212 23.83,2.735 21.168,2.735 "
     id="polygon7"
     transform="matrix(1.8504812,0,0,1.8504812,0,4.3081075)" /><g
     id="g9"
     transform="matrix(0.69219566,0,0,0.69219566,0,32.037483)"
     style="fill:#ffffff" /><g
     id="g11"
     transform="matrix(0.69219566,0,0,0.69219566,0,32.037483)"
     style="fill:#ffffff" /><g
     id="g13"
     transform="matrix(0.69219566,0,0,0.69219566,0,32.037483)"
     style="fill:#ffffff" /><g
     id="g15"
     transform="matrix(0.69219566,0,0,0.69219566,0,32.037483)"
     style="fill:#ffffff" /><g
     id="g17"
     transform="matrix(0.69219566,0,0,0.69219566,0,32.037483)"
     style="fill:#ffffff" /><g
     id="g19"
     transform="matrix(0.69219566,0,0,0.69219566,0,32.037483)"
     style="fill:#ffffff" /><g
     id="g21"
     transform="matrix(0.69219566,0,0,0.69219566,0,32.037483)"
     style="fill:#ffffff" /><g
     id="g23"
     transform="matrix(0.69219566,0,0,0.69219566,0,32.037483)"
     style="fill:#ffffff" /><g
     id="g25"
     transform="matrix(0.69219566,0,0,0.69219566,0,32.037483)"
     style="fill:#ffffff" /><g
     id="g27"
     transform="matrix(0.69219566,0,0,0.69219566,0,32.037483)"
     style="fill:#ffffff" /><g
     id="g29"
     transform="matrix(0.69219566,0,0,0.69219566,0,32.037483)"
     style="fill:#ffffff" /><g
     id="g31"
     transform="matrix(0.69219566,0,0,0.69219566,0,32.037483)"
     style="fill:#ffffff" /><g
     id="g33"
     transform="matrix(0.69219566,0,0,0.69219566,0,32.037483)"
     style="fill:#ffffff" /><g
     id="g35"
     transform="matrix(0.69219566,0,0,0.69219566,0,32.037483)"
     style="fill:#ffffff" /><g
     id="g37"
     transform="matrix(0.69219566,0,0,0.69219566,0,32.037483)"
     style="fill:#ffffff" /></svg>