<?xml version="1.0" encoding="UTF-8" standalone="no"?>
<!-- Generator: Adobe Illustrator 17.0.2, SVG Export Plug-In . SVG Version: 6.00 Build 0)  -->

<svg
   xmlns:dc="http://purl.org/dc/elements/1.1/"
   xmlns:cc="http://creativecommons.org/ns#"
   xmlns:rdf="http://www.w3.org/1999/02/22-rdf-syntax-ns#"
   xmlns:svg="http://www.w3.org/2000/svg"
   xmlns="http://www.w3.org/2000/svg"
   xmlns:sodipodi="http://sodipodi.sourceforge.net/DTD/sodipodi-0.dtd"
   xmlns:inkscape="http://www.inkscape.org/namespaces/inkscape"
   version="1.0"
   id="Layer_1"
   x="0px"
   y="0px"
   width="50"
   height="50"
   viewBox="0 0 50 49.999998"
   enable-background="new 0 0 17.916 20.495"
   xml:space="preserve"
   inkscape:version="0.48.4 r9939"
   sodipodi:docname="drink24_selected.svg"><metadata
     id="metadata13"><rdf:RDF><cc:Work
         rdf:about=""><dc:format>image/svg+xml</dc:format><dc:type
           rdf:resource="http://purl.org/dc/dcmitype/StillImage" /></cc:Work></rdf:RDF></metadata><defs
     id="defs11" /><sodipodi:namedview
     pagecolor="#ffffff"
     bordercolor="#666666"
     borderopacity="1"
     objecttolerance="10"
     gridtolerance="10"
     guidetolerance="10"
     inkscape:pageopacity="0"
     inkscape:pageshadow="2"
     inkscape:window-width="1366"
     inkscape:window-height="715"
     id="namedview9"
     showgrid="false"
     inkscape:zoom="11.515003"
     inkscape:cx="4.2561343"
     inkscape:cy="27.616145"
     inkscape:window-x="0"
     inkscape:window-y="31"
     inkscape:window-maximized="1"
     inkscape:current-layer="Layer_1" /><g
     id="g3"
     transform="matrix(2.4396194,0,0,2.4396194,3.478941,-4.5749999e-7)"
     style="fill:#ffffff;fill-opacity:1"><path
       d="m 14.907,8.55 h -0.911 c -0.187,0 -0.37,0.019 -0.548,0.052 V 6.545 C 13.448,6.433 13.436,6.324 13.415,6.218 14.013,5.775 14.406,5.07 14.406,4.27 14.406,2.78 13.034,1.585 11.523,1.884 11.023,1.358 10.311,1.061 9.577,1.098 9.109,0.42 8.33,0 7.499,0 6.824,0 6.186,0.268 5.717,0.734 5.592,0.683 5.464,0.642 5.333,0.612 L 5.17,0.58 C 5.044,0.56 4.917,0.549 4.788,0.547 4.599,0.532 4.417,0.533 4.238,0.548 l -0.049,0 V 0.552 C 3.115,0.66 2.211,1.296 1.855,2.183 0.801,2.383 0,3.312 0,4.422 0,5.197 0.39,5.88 0.982,6.292 0.97,6.375 0.957,6.458 0.957,6.545 v 12.309 c 0,0.905 0.736,1.641 1.641,1.641 h 9.209 c 0.905,0 1.641,-0.736 1.641,-1.641 V 16.34 c 0.178,0.033 0.36,0.052 0.548,0.052 h 0.911 c 1.659,0 3.009,-1.35 3.009,-3.009 V 11.56 c 0,-1.659 -1.35,-3.01 -3.009,-3.01 z m -2.553,10.303 c 0,0.302 -0.245,0.547 -0.547,0.547 H 2.598 C 2.296,19.4 2.051,19.155 2.051,18.853 V 6.545 c 0,-0.302 0.245,-0.547 0.547,-0.547 h 9.209 c 0.302,0 0.547,0.245 0.547,0.547 v 12.308 z m 0.487,-13.573 0,0 C 12.558,5.048 12.201,4.903 11.807,4.903 H 2.598 C 2.181,4.903 1.805,5.064 1.515,5.32 1.26,5.103 1.094,4.783 1.094,4.422 1.094,3.771 1.623,3.24 2.275,3.238 L 2.723,3.236 2.81,2.797 C 2.912,2.283 3.446,1.74 4.262,1.645 H 4.865 C 5.11,1.662 5.346,1.742 5.554,1.879 L 6.006,2.178 6.309,1.729 C 6.577,1.332 7.022,1.094 7.5,1.094 c 0.556,0 1.05,0.315 1.292,0.823 l 0.184,0.387 0.42,-0.086 c 0.572,-0.115 1.155,0.124 1.478,0.597 l 0.24,0.352 0.4,-0.147 c 0.161,-0.059 0.311,-0.088 0.46,-0.088 0.738,0 1.338,0.6 1.338,1.338 0,0.405 -0.186,0.765 -0.471,1.01 z m 3.434,8.103 c 0,0.754 -0.613,1.368 -1.368,1.368 h -0.911 c -0.195,0 -0.38,-0.042 -0.548,-0.116 v -4.326 c 0.168,-0.074 0.353,-0.116 0.548,-0.116 h 0.911 c 0.754,0 1.368,0.613 1.368,1.368 v 1.822 z"
       id="path5"
       inkscape:connector-curvature="0"
       style="fill:#ffffff;fill-opacity:1" /><rect
       x="2.598"
       y="8.0030003"
       width="9.21"
       height="10.85"
       id="rect7"
       style="fill:#ffffff;fill-opacity:1" /></g></svg>