<?xml version="1.0" encoding="UTF-8" standalone="no"?>
<!-- Generator: Adobe Illustrator 16.0.0, SVG Export Plug-In . SVG Version: 6.00 Build 0)  -->

<svg
   xmlns:dc="http://purl.org/dc/elements/1.1/"
   xmlns:cc="http://creativecommons.org/ns#"
   xmlns:rdf="http://www.w3.org/1999/02/22-rdf-syntax-ns#"
   xmlns:svg="http://www.w3.org/2000/svg"
   xmlns="http://www.w3.org/2000/svg"
   xmlns:sodipodi="http://sodipodi.sourceforge.net/DTD/sodipodi-0.dtd"
   xmlns:inkscape="http://www.inkscape.org/namespaces/inkscape"
   version="1.1"
   id="Capa_1"
   x="0px"
   y="0px"
   width="27.02"
   height="27.02"
   viewBox="0 0 27.020001 27.02"
   xml:space="preserve"
   inkscape:version="0.48.4 r9939"
   sodipodi:docname="dwelling1.svg"><metadata
     id="metadata43"><rdf:RDF><cc:Work
         rdf:about=""><dc:format>image/svg+xml</dc:format><dc:type
           rdf:resource="http://purl.org/dc/dcmitype/StillImage" /></cc:Work></rdf:RDF></metadata><defs
     id="defs41"><filter
       id="filter3767"
       inkscape:label="Invert"
       x="0"
       y="0"
       width="1"
       height="1"
       inkscape:menu="Color"
       inkscape:menu-tooltip="Invert colors"
       color-interpolation-filters="sRGB"><feColorMatrix
         id="feColorMatrix3769"
         type="saturate"
         values="1"
         result="fbSourceGraphic" /><feColorMatrix
         id="feColorMatrix3771"
         in="fbSourceGraphic"
         values="-1 0 0 0 1 0 -1 0 0 1 0 0 -1 0 1 0 0 0 1 0 " /></filter><filter
       id="filter3773"
       inkscape:label="Invert"
       x="0"
       y="0"
       width="1"
       height="1"
       inkscape:menu="Color"
       inkscape:menu-tooltip="Invert colors"
       color-interpolation-filters="sRGB"><feColorMatrix
         id="feColorMatrix3775"
         type="saturate"
         values="1"
         result="fbSourceGraphic" /><feColorMatrix
         id="feColorMatrix3777"
         in="fbSourceGraphic"
         values="-1 0 0 0 1 0 -1 0 0 1 0 0 -1 0 1 0 0 0 1 0 " /></filter><filter
       id="filter3779"
       inkscape:label="Invert"
       x="0"
       y="0"
       width="1"
       height="1"
       inkscape:menu="Color"
       inkscape:menu-tooltip="Invert colors"
       color-interpolation-filters="sRGB"><feColorMatrix
         id="feColorMatrix3781"
         type="saturate"
         values="1"
         result="fbSourceGraphic" /><feColorMatrix
         id="feColorMatrix3783"
         in="fbSourceGraphic"
         values="-1 0 0 0 1 0 -1 0 0 1 0 0 -1 0 1 0 0 0 1 0 " /></filter></defs><sodipodi:namedview
     pagecolor="#ffffff"
     bordercolor="#666666"
     borderopacity="1"
     objecttolerance="10"
     gridtolerance="10"
     guidetolerance="10"
     inkscape:pageopacity="0"
     inkscape:pageshadow="2"
     inkscape:window-width="1304"
     inkscape:window-height="746"
     id="namedview39"
     showgrid="false"
     inkscape:zoom="9.8579781"
     inkscape:cx="-20.370687"
     inkscape:cy="11.97"
     inkscape:window-x="-8"
     inkscape:window-y="-8"
     inkscape:window-maximized="1"
     inkscape:current-layer="Capa_1" /><path
     style="fill:#ffffff;fill-opacity:1;filter:url(#filter3779)"
     d="m 3.674,25.024646 c 0,0 -0.024,0.604 0.566,0.604 0.734,0 6.811,-0.008 6.811,-0.008 l 0.01,-5.581 c 0,0 -0.096,-0.92 0.797,-0.92 h 2.826 c 1.056,0 0.991,0.92 0.991,0.92 l -0.012,5.563 c 0,0 5.762,0 6.667,0 0.749,0 0.715,-0.752 0.715,-0.752 v -10.289 L 13.649,6.2036437 3.674,14.561646 v 10.463 z"
     id="path3"
     inkscape:connector-curvature="0" /><path
     style="fill:#ffffff;fill-opacity:1;filter:url(#filter3773)"
     d="m 0,13.783646 c 0,0 0.847,1.561 2.694,0 L 13.732,4.4456437 24.081,13.725646 c 2.138,1.542 2.939,0 2.939,0 L 13.732,1.6886437 0,13.783646 z"
     id="path5"
     inkscape:connector-curvature="0" /><polygon
     style="fill:#ffffff;fill-opacity:1;filter:url(#filter3767)"
     points="23.83,8.212 23.83,2.735 21.168,2.735 21.179,5.963 "
     id="polygon7"
     transform="translate(0,1.6886437)" /><g
     id="g9"
     transform="translate(0,1.6886437)" /><g
     id="g11"
     transform="translate(0,1.6886437)" /><g
     id="g13"
     transform="translate(0,1.6886437)" /><g
     id="g15"
     transform="translate(0,1.6886437)" /><g
     id="g17"
     transform="translate(0,1.6886437)" /><g
     id="g19"
     transform="translate(0,1.6886437)" /><g
     id="g21"
     transform="translate(0,1.6886437)" /><g
     id="g23"
     transform="translate(0,1.6886437)" /><g
     id="g25"
     transform="translate(0,1.6886437)" /><g
     id="g27"
     transform="translate(0,1.6886437)" /><g
     id="g29"
     transform="translate(0,1.6886437)" /><g
     id="g31"
     transform="translate(0,1.6886437)" /><g
     id="g33"
     transform="translate(0,1.6886437)" /><g
     id="g35"
     transform="translate(0,1.6886437)" /><g
     id="g37"
     transform="translate(0,1.6886437)" /></svg>